<?xml version="1.0" encoding="UTF-8"?>
<svg id="Capa_1" data-name="Capa 1" xmlns="http://www.w3.org/2000/svg" viewBox="0 0 35 35">
  <defs>
    <style>
      .cls-1 {
        fill: #97df5f;
        stroke-width: 0px;
      }
    </style>
  </defs>
  <path class="cls-1" d="m8.69,15.64v-3.29q0-.24.25-.24c1.04,0,2.08,0,3.12.01.37,0,.73.04,1.08.15.38.13.69.33.9.68.07.11.12.23.16.35.11.44.11.88-.02,1.32-.12.38-.36.66-.71.85-.3.17-.63.25-.97.29-.18,0-.36.02-.55.02-.45-.01-.91,0-1.37,0h-1.74c-.12-.01-.14-.03-.15-.14Z"/>
  <path class="cls-1" d="m14.74,19.29c.2.54.23,1.1.09,1.66-.14.61-.54,1-1.11,1.21-.38.15-.78.21-1.18.21-1.22.01-2.44.01-3.66.01h-.08c-.07-.01-.1-.04-.1-.11,0-.04-.01-.09-.01-.13v-3.79s0-.1.01-.14c0-.1.02-.12.12-.13h3.61c.34,0,.68.04,1.01.13.24.07.47.18.68.31.29.19.5.45.62.77Z"/>
  <path class="cls-1" d="m26.34,16.36c-.25-.37-.59-.63-1.02-.76-.52-.14-1.03-.15-1.55-.05-.55.11-1,.39-1.36.82-.31.38-.45.82-.53,1.29-.04.24-.03.24.21.24h4.7c.1,0,.12-.02.1-.13-.1-.5-.26-.98-.55-1.41Zm0,0c-.25-.37-.59-.63-1.02-.76-.52-.14-1.03-.15-1.55-.05-.55.11-1,.39-1.36.82-.31.38-.45.82-.53,1.29-.04.24-.03.24.21.24h4.7c.1,0,.12-.02.1-.13-.1-.5-.26-.98-.55-1.41ZM17.5,0C7.84,0,0,7.84,0,17.5s7.84,17.5,17.5,17.5,17.5-7.84,17.5-17.5S27.16,0,17.5,0Zm3.85,10.46s0-.06,0-.09c.01-.08.03-.1.11-.11h5.93q.23,0,.23.22v1.28s.01.07,0,.1c0,.1-.02.11-.12.12h-5.94q-.21,0-.21-.21v-1.31Zm-3.31,11.65c-.32.86-.89,1.52-1.66,2-.63.39-1.31.62-2.02.76-.54.1-1.08.14-1.63.14h-7.17q-.27,0-.27-.26v-15.18c.01-.07.04-.1.11-.1.04-.01.08-.01.12-.01,2.36,0,4.71,0,7.06.01.76,0,1.51.05,2.24.24.45.12.89.29,1.29.54.6.39,1.03.92,1.24,1.61.28.87.31,1.75.05,2.63-.12.44-.35.82-.67,1.16-.32.34-.69.61-1.1.82-.05.03-.11.04-.14.1.05.05.1.05.15.07.5.16.95.38,1.35.72.56.46.92,1.06,1.13,1.75.17.59.22,1.2.17,1.81-.03.41-.1.81-.25,1.19Zm11.86-2.27c-.05.01-.11.01-.16.01h-7.77c-.09.01-.11.03-.11.12,0,.1.02.19.03.28.03.36.11.72.25,1.06.23.58.64.98,1.21,1.2.47.18.95.23,1.45.21.32-.02.63-.07.92-.19.45-.17.83-.45,1.13-.82.08-.1.14-.2.18-.31.04-.1.11-.13.2-.13h2.33c.22,0,.22.01.15.22-.19.54-.43,1.05-.76,1.52-.52.76-1.23,1.28-2.09,1.61-.56.21-1.13.32-1.73.37-.78.06-1.55.02-2.31-.18-.76-.19-1.44-.51-2.04-1.01-.68-.55-1.16-1.24-1.5-2.04-.27-.65-.42-1.32-.47-2.02-.06-.81-.02-1.6.2-2.39.22-.85.61-1.61,1.19-2.28.7-.8,1.57-1.34,2.58-1.65.48-.15.97-.21,1.48-.23.61-.03,1.21.02,1.81.18,1.3.35,2.3,1.14,3,2.29.44.73.7,1.54.84,2.38.09.54.1,1.08.09,1.62-.01.03-.01.06-.01.09-.01.06-.04.09-.09.09Zm-4.58-4.24c-.52-.14-1.03-.15-1.55-.05-.55.11-1,.39-1.36.82-.31.38-.45.82-.53,1.29-.04.24-.03.24.21.24h4.7c.1,0,.12-.02.1-.13-.1-.5-.26-.98-.55-1.41-.25-.37-.59-.63-1.02-.76Z"/>
</svg>