<?xml version="1.0" encoding="UTF-8"?>
<svg id="Capa_1" data-name="Capa 1" xmlns="http://www.w3.org/2000/svg" viewBox="0 0 35 35">
  <defs>
    <style>
      .cls-1 {
        fill: #97df5f;
        stroke-width: 0px;
      }
    </style>
  </defs>
  <path class="cls-1" d="m35,18c-.02.12-.05.23-.05.35-.06,3.47-1.04,6.66-2.92,9.55-1.85,2.85-4.31,4.99-7.36,6.41-.47.22-.95.41-1.44.59-.17.06-.37.09-.55.09-.46,0-.78-.3-.78-.78,0-1.27,0-2.54,0-3.8,0-.62,0-1.24-.04-1.85-.06-.99-.37-1.88-1.06-2.63.42-.07.82-.13,1.23-.21,1.17-.22,2.29-.58,3.31-1.21,1.59-.99,2.53-2.45,3-4.26.24-.94.34-1.9.36-2.87.03-1.1-.11-2.17-.53-3.19-.27-.67-.64-1.27-1.1-1.82-.11-.13-.13-.25-.08-.42.45-1.5.31-2.97-.22-4.42-.05-.14-.15-.15-.28-.16-.75-.04-1.47.15-2.13.47-.77.38-1.51.82-2.26,1.25-.15.09-.28.12-.45.08-1.09-.28-2.19-.45-3.32-.51-1.69-.1-3.34.11-4.97.52-.17.04-.29.02-.43-.08-1.02-.69-2.08-1.31-3.28-1.6-.38-.09-.79-.1-1.19-.12-.07,0-.19.09-.22.16-.27.7-.43,1.42-.47,2.17-.05.8.03,1.59.28,2.36.02.08-.04.21-.1.29-.72.87-1.21,1.85-1.46,2.96-.23.99-.2,1.99-.12,3,.07.88.23,1.74.51,2.57.73,2.15,2.19,3.57,4.26,4.33.95.35,1.93.57,2.93.68.03,0,.07.02.12.04-.11.14-.2.25-.29.38-.37.52-.57,1.12-.7,1.74-.02.09-.07.22-.14.25-.94.4-1.9.58-2.89.26-.88-.28-1.5-.9-1.96-1.69-.44-.75-1-1.35-1.79-1.71-.45-.21-.92-.32-1.42-.2-.43.1-.51.34-.21.68.12.13.25.26.4.35.93.56,1.51,1.42,1.91,2.4.27.65.56,1.26,1.07,1.75.68.66,1.5,1.01,2.42,1.13.79.1,1.57.05,2.34-.11.15-.03.2,0,.2.16,0,.96.01,1.92,0,2.89,0,.61-.59.95-1.22.73-1.32-.46-2.56-1.06-3.73-1.84-3.47-2.29-5.87-5.44-7.21-9.43-.41-1.23-.69-2.49-.8-3.79-.04-.52-.06-1.04-.1-1.56,0-.09-.03-.19-.05-.28,0-.34,0-.69,0-1.03.02-.08.05-.15.06-.23.05-.99.19-1.97.42-2.93C1.52,9.46,3.83,5.93,7.43,3.29,10.15,1.3,13.2.23,16.54.03c1.3-.08,2.61-.01,3.89.22,1.79.33,3.5.89,5.11,1.77,3.34,1.81,5.86,4.44,7.56,7.88,1.19,2.41,1.79,4.98,1.84,7.68,0,.12.04.25.06.37v.04Z"/>
</svg>