<?xml version="1.0" encoding="UTF-8"?>
<svg id="Capa_1" data-name="Capa 1" xmlns="http://www.w3.org/2000/svg" viewBox="0 0 35 35">
  <defs>
    <style>
      .cls-1 {
        fill: #97df5f;
        stroke-width: 0px;
      }
    </style>
  </defs>
  <path class="cls-1" d="m17.5,0C7.84,0,0,7.84,0,17.5s7.84,17.5,17.5,17.5,17.5-7.84,17.5-17.5S27.16,0,17.5,0Zm-5.93,27.07q0,.21-.22.21h-3.96q-.26,0-.26-.25v-13.73q0-.23.23-.23h3.98q.23,0,.23.23v13.77Zm-2.24-15.81c-1.52,0-2.62-1.24-2.61-2.65.01-1.44,1.17-2.61,2.62-2.61s2.6,1.18,2.6,2.64c.01,1.33-1.04,2.62-2.61,2.62Zm18.67,15.81q0,.21-.22.21h-3.99q-.2,0-.2-.2v-7.13c0-.55-.02-1.09-.18-1.62-.2-.67-.56-1.21-1.24-1.49-.39-.17-.81-.19-1.22-.16-.66.05-1.24.28-1.68.8-.33.4-.52.87-.6,1.37-.06.34-.09.68-.09,1.02-.01,2.4,0,4.8,0,7.2q0,.21-.22.21h-3.83q-.2,0-.2-.2v-13.8q0-.21.21-.21h3.83q.21,0,.21.21v1.65c.44-.67.98-1.19,1.64-1.58.61-.36,1.26-.59,1.97-.66,1.09-.12,2.14.01,3.14.49,1.17.56,1.91,1.51,2.32,2.73.19.56.3,1.13.32,1.72.01.32.03.64.03.95v8.49Z"/>
</svg>