<?xml version="1.0" encoding="UTF-8"?>
<svg id="Capa_1" data-name="Capa 1" xmlns="http://www.w3.org/2000/svg" viewBox="0 0 35 35">
  <defs>
    <style>
      .cls-1 {
        fill: #97df5f;
        stroke-width: 0px;
      }
    </style>
  </defs>
  <path class="cls-1" d="m13.3,21.56c-.96.01-1.7-.72-1.7-1.68s.72-1.69,1.69-1.69,1.7.74,1.71,1.68c0,.94-.74,1.69-1.7,1.69Z"/>
  <path class="cls-1" d="m21.71,24.19c.12.22.04.38-.16.53-1.27.89-2.68,1.3-4.22,1.24-1.45.05-2.78-.33-3.99-1.13-.34-.23-.42-.46-.25-.69.23-.32.49-.18.74-.02,2.36,1.43,4.72,1.43,7.08.02.08-.05.15-.1.24-.14.24-.11.43-.01.56.19Z"/>
  <path class="cls-1" d="m23.05,19.98c.01.88-.71,1.74-1.51,1.7-.96-.04-1.84-.51-1.87-1.74-.02-.94.75-1.7,1.68-1.7s1.7.77,1.7,1.74Z"/>
  <path class="cls-1" d="m17.5,0C7.84,0,0,7.84,0,17.5s7.84,17.5,17.5,17.5,17.5-7.84,17.5-17.5S27.16,0,17.5,0Zm11.44,18.75c-.14.66-.52,1.16-1.06,1.57-.12.09-.26.27-.26.41.05,2.88-1.49,4.79-3.88,6.03-4.19,2.17-8.46,2.14-12.67,0-1.66-.84-2.94-2.11-3.55-3.91-.22-.62-.24-1.31-.3-1.98-.03-.26-.07-.44-.31-.6-1.2-.72-1.56-2.41-.7-3.63.82-1.17,2.41-1.43,3.63-.57.23.16.38.06.55-.05,1.68-1.06,3.51-1.67,5.48-1.87.03-.01.05-.01.08-.01q.87-.09,1.05-.95c.34-1.61.68-3.23,1.03-4.84.13-.65.35-.79,1.01-.67,1.18.24,2.35.46,3.53.71.29.07.48.04.71-.2.57-.61,1.43-.73,2.12-.34.7.39,1.05,1.16.87,1.94-.17.77-.82,1.33-1.61,1.38-.8.06-1.52-.45-1.82-1.23-.05-.14-.19-.33-.32-.36-1.11-.26-2.22-.49-3.39-.74-.21.95-.4,1.86-.59,2.76-.15.72-.29,1.45-.46,2.16-.07.31-.02.45.33.47,2.18.13,4.2.76,6.03,1.97.2.13.32.06.48-.05.89-.65,2.01-.68,2.9-.1.91.6,1.35,1.63,1.12,2.69Z"/>
</svg>