<?xml version="1.0" encoding="UTF-8"?>
<svg id="Capa_1" data-name="Capa 1" xmlns="http://www.w3.org/2000/svg" xmlns:xlink="http://www.w3.org/1999/xlink" viewBox="0 0 215.24 74.23">
  <defs>
    <style>
      .cls-1 {
        stroke-width: 0px;
      }

      .cls-1, .cls-2 {
        fill: #97df5f;
      }

      .cls-3 {
        clip-path: url(#clippath);
      }
    </style>
    <clipPath id="clippath">
      <path class="cls-1" d="m60.77,6.57L14.61,66.32l13.89-40.28-20.65,12.89,24.49-27.54-2.48,16.21L60.77,6.57Zm-28.96,17.94l2.71-17.77L.03,45.52l25.74-16.07-15.43,44.77L67.52.22,31.81,24.52Z"/>
    </clipPath>
  </defs>
  <g>
    <path class="cls-1" d="m48.5,48.9c-2.43,0-4.1-.52-5.04-1.58-.64-.74-.96-1.79-.96-3.13,0-.57.06-1.19.18-1.86l1.04-5.85c.76-4.29,3.51-6.43,8.26-6.43,1.97,0,3.45.42,4.48,1.25s1.53,1.99,1.53,3.44c0,.68-.1,1.35-.29,2.02-.19.67-.38,1.16-.57,1.49l-.28.51h-4.5c.56-.64.84-1.56.84-2.75,0-.62-.16-1.12-.48-1.49s-.79-.54-1.43-.54c-1.72,0-2.73.95-3.05,2.85l-.89,5.14c-.08.44-.13.87-.13,1.29,0,1.11.67,1.68,2.01,1.68,1.61,0,2.58-.9,2.9-2.72h4.58l-.13.73c-.67,3.97-3.36,5.94-8.06,5.94Z"/>
    <path class="cls-1" d="m69.11,30.24c1.93,0,3.3.42,4.11,1.27.61.64.91,1.46.91,2.44,0,.34-.03.69-.1,1.06l-.35,1.99c-.2,1.1-.55,1.99-1.05,2.67s-1.05,1.16-1.67,1.45l2.31,7.43h-5.14l-2.13-6.83h-1.58l-1.04,6.83h-4.88l3.23-18.31h7.37Zm-1.6,3.96h-1.91l-.66,4.43h1.78c.9,0,1.55-.21,1.94-.65.39-.43.58-1,.58-1.72,0-1.36-.57-2.06-1.73-2.06Z"/>
    <path class="cls-1" d="m87.95,48.55h-12.76l3.23-18.31h12.77l-.71,3.96h-8.19l-.58,3.43h6.76l-.71,3.96h-6.76l-.51,2.97h8.19l-.72,3.97Z"/>
    <path class="cls-1" d="m99.92,48.55l.15-3.99h-4.25l-1.24,3.99h-4.86l6.53-18.31h8.39l.1,18.31h-4.83Zm-1.04-13.86l-2.01,6.45h3.33l.28-6.45h-1.61Z"/>
    <path class="cls-1" d="m123.82,34.2h-6.25l-2.52,14.34h-4.6l2.52-14.34h-6.28l.71-3.96h17.13l-.71,3.96Z"/>
    <path class="cls-1" d="m131.2,30.24l-3.2,18.31h-4.6l3.23-18.31h4.57Z"/>
    <path class="cls-1" d="m139.1,44.1l4.83-13.85h4.96l-6.95,18.31h-8.14l-.2-18.31h4.98l-.08,13.85h.6Z"/>
    <path class="cls-1" d="m160.81,48.55h-12.76l3.23-18.31h12.77l-.71,3.96h-8.19l-.58,3.43h6.76l-.71,3.96h-6.76l-.51,2.97h8.19l-.72,3.97Z"/>
    <path class="cls-1" d="m168.59,43.34c0,1.17.84,1.76,2.53,1.76s2.53-.52,2.53-1.58c0-.56-.29-1.01-.86-1.37-.57-.35-1.27-.65-2.1-.89-.82-.24-1.65-.51-2.47-.82s-1.53-.8-2.1-1.48c-.57-.67-.86-1.51-.86-2.51,0-4.26,2.74-6.38,8.21-6.38,2,0,3.51.38,4.54,1.13s1.54,1.8,1.54,3.14c0,.49-.06.96-.19,1.42s-.26.76-.39.95l-.2.3h-4.5c.37-.39.56-.88.56-1.48,0-1.1-.72-1.66-2.16-1.66-1.82,0-2.72.57-2.72,1.73,0,.57.29,1.03.86,1.37s1.27.6,2.1.8,1.65.43,2.48.72,1.54.76,2.11,1.44c.57.67.86,1.54.86,2.61,0,2.16-.64,3.75-1.93,4.79-1.28,1.04-3.27,1.57-5.95,1.57s-4.51-.47-5.49-1.43c-.73-.71-1.09-1.7-1.09-2.95,0-.47.05-.99.15-1.56l.08-.41h4.58l-.05.3c-.05.19-.06.34-.06.48Z"/>
    <path class="cls-1" d="m198.33,34.2h-6.25l-2.52,14.34h-4.6l2.52-14.34h-6.28l.71-3.96h17.13l-.71,3.96Z"/>
    <path class="cls-1" d="m215.24,30.24l-3.2,18.31h-4.6l1.17-6.61h-4.96l-1.14,6.61h-4.6l3.23-18.31h4.58l-1.37,7.73h4.96l1.37-7.73h4.56Z"/>
  </g>
  <g>
    <path id="SVGID" class="cls-1" d="m60.77,6.57L14.61,66.32l13.89-40.28-20.65,12.89,24.49-27.54-2.48,16.21L60.77,6.57Zm-28.96,17.94l2.71-17.77L.03,45.52l25.74-16.07-15.43,44.77L67.52.22,31.81,24.52Z"/>
    <g>
      <path class="cls-2" d="m60.77,6.57L14.61,66.32l13.89-40.28-20.65,12.89,24.49-27.54-2.48,16.21L60.77,6.57Zm-28.96,17.94l2.71-17.77L.03,45.52l25.74-16.07-15.43,44.77L67.52.22,31.81,24.52Z"/>
      <g class="cls-3">
        <rect class="cls-1" width="67.66" height="74.22"/>
      </g>
    </g>
  </g>
</svg>